<svg width="179" height="27" viewBox="0 0 179 27" fill="none" xmlns="http://www.w3.org/2000/svg">
    <path d="M12.7314 4.70605C12.6175 4.66048 12.4808 4.58073 12.3213 4.4668C12.1618 4.35286 11.9339 4.25033 11.6377 4.15918C11.3415 4.04525 10.9655 3.9541 10.5098 3.88574C10.054 3.81738 9.47298 3.80599 8.7666 3.85156V0.399414C9.76921 0.422201 10.7832 0.536133 11.8086 0.741211C12.8568 0.923503 13.6999 1.21973 14.3379 1.62988C14.2012 1.92611 14.0417 2.25651 13.8594 2.62109C13.6771 2.96289 13.5062 3.29329 13.3467 3.6123C13.1872 3.90853 13.0505 4.15918 12.9365 4.36426C12.8226 4.56934 12.7542 4.68327 12.7314 4.70605ZM0.939453 7.44043C0.939453 6.43783 1.11035 5.53776 1.45215 4.74023C1.79395 3.94271 2.24967 3.24772 2.81934 2.65527C3.41178 2.04004 4.09538 1.56152 4.87012 1.21973C5.66764 0.855143 6.49935 0.615885 7.36523 0.501953V4.09082C6.63607 4.34147 6.03223 4.78581 5.55371 5.42383C5.0752 6.03906 4.83594 6.66569 4.83594 7.30371C4.83594 8.19238 5.0752 8.91016 5.55371 9.45703C6.03223 10.0039 6.63607 10.4824 7.36523 10.8926V14.7891C6.61328 14.4245 5.86133 14.0371 5.10938 13.627C4.35742 13.194 3.67383 12.6927 3.05859 12.123C2.44336 11.5534 1.93066 10.8926 1.52051 10.1406C1.13314 9.38867 0.939453 8.48861 0.939453 7.44043ZM1.48633 21.3857C1.80534 21.568 2.2041 21.7503 2.68262 21.9326C3.18392 22.0921 3.69661 22.2516 4.2207 22.4111C4.74479 22.5479 5.26888 22.6618 5.79297 22.7529C6.31706 22.8441 6.80697 22.8896 7.2627 22.8896H7.36523V26.1367H7.29688C6.75 26.1367 6.18034 26.1025 5.58789 26.0342C5.01823 25.9886 4.43717 25.8975 3.84473 25.7607C3.25228 25.624 2.68262 25.4417 2.13574 25.2139C1.61165 24.9632 1.15592 24.667 0.768555 24.3252L1.48633 21.3857ZM8.7666 11.5762C9.51855 11.918 10.2819 12.2826 11.0566 12.6699C11.8542 13.0573 12.5719 13.5358 13.21 14.1055C13.848 14.6523 14.3721 15.3245 14.7822 16.1221C15.1924 16.9196 15.3975 17.9108 15.3975 19.0957C15.3975 19.916 15.238 20.7135 14.9189 21.4883C14.6227 22.263 14.1898 22.9694 13.6201 23.6074C13.0732 24.2227 12.3896 24.7467 11.5693 25.1797C10.749 25.6126 9.81478 25.8975 8.7666 26.0342V22.7529C10.6351 22.2972 11.5693 21.0553 11.5693 19.0273C11.5693 18.2298 11.3073 17.569 10.7832 17.0449C10.2591 16.5208 9.58691 16.0309 8.7666 15.5752V11.5762ZM103.786 4.70605C103.672 4.66048 103.535 4.58073 103.376 4.4668C103.216 4.35286 102.989 4.25033 102.692 4.15918C102.396 4.04525 102.02 3.9541 101.564 3.88574C101.109 3.81738 100.528 3.80599 99.8213 3.85156V0.399414C100.824 0.422201 101.838 0.536133 102.863 0.741211C103.911 0.923503 104.755 1.21973 105.393 1.62988C105.256 1.92611 105.096 2.25651 104.914 2.62109C104.732 2.96289 104.561 3.29329 104.401 3.6123C104.242 3.90853 104.105 4.15918 103.991 4.36426C103.877 4.56934 103.809 4.68327 103.786 4.70605ZM91.9941 7.44043C91.9941 6.43783 92.165 5.53776 92.5068 4.74023C92.8486 3.94271 93.3044 3.24772 93.874 2.65527C94.4665 2.04004 95.1501 1.56152 95.9248 1.21973C96.7223 0.855143 97.554 0.615885 98.4199 0.501953V4.09082C97.6908 4.34147 97.0869 4.78581 96.6084 5.42383C96.1299 6.03906 95.8906 6.66569 95.8906 7.30371C95.8906 8.19238 96.1299 8.91016 96.6084 9.45703C97.0869 10.0039 97.6908 10.4824 98.4199 10.8926V14.7891C97.668 14.4245 96.916 14.0371 96.1641 13.627C95.4121 13.194 94.7285 12.6927 94.1133 12.123C93.498 11.5534 92.9854 10.8926 92.5752 10.1406C92.1878 9.38867 91.9941 8.48861 91.9941 7.44043ZM92.541 21.3857C92.86 21.568 93.2588 21.7503 93.7373 21.9326C94.2386 22.0921 94.7513 22.2516 95.2754 22.4111C95.7995 22.5479 96.3236 22.6618 96.8477 22.7529C97.3717 22.8441 97.8617 22.8896 98.3174 22.8896H98.4199V26.1367H98.3516C97.8047 26.1367 97.235 26.1025 96.6426 26.0342C96.0729 25.9886 95.4919 25.8975 94.8994 25.7607C94.307 25.624 93.7373 25.4417 93.1904 25.2139C92.6663 24.9632 92.2106 24.667 91.8232 24.3252L92.541 21.3857ZM99.8213 11.5762C100.573 11.918 101.337 12.2826 102.111 12.6699C102.909 13.0573 103.627 13.5358 104.265 14.1055C104.903 14.6523 105.427 15.3245 105.837 16.1221C106.247 16.9196 106.452 17.9108 106.452 19.0957C106.452 19.916 106.293 20.7135 105.974 21.4883C105.677 22.263 105.244 22.9694 104.675 23.6074C104.128 24.2227 103.444 24.7467 102.624 25.1797C101.804 25.6126 100.869 25.8975 99.8213 26.0342V22.7529C101.69 22.2972 102.624 21.0553 102.624 19.0273C102.624 18.2298 102.362 17.569 101.838 17.0449C101.314 16.5208 100.642 16.0309 99.8213 15.5752V11.5762Z" fill="#A18A68"/>
    <path d="M38.9131 0.80957V26H34.8115V14.6523H25.3096V11.8496H34.8115V0.80957H38.9131ZM19.7383 0.80957H23.9082V26H19.7383V0.80957ZM44.7578 13.2852C44.7578 11.2572 44.9971 9.46842 45.4756 7.91895C45.9769 6.34668 46.6605 5.02507 47.5264 3.9541C48.415 2.86035 49.4518 2.02865 50.6367 1.45898C51.8444 0.866536 53.1546 0.52474 54.5674 0.433594V3.85156C53.7926 3.94271 53.0635 4.18197 52.3799 4.56934C51.6963 4.95671 51.1038 5.52637 50.6025 6.27832C50.1012 7.03027 49.7025 7.9873 49.4062 9.14941C49.11 10.3115 48.9505 11.6901 48.9277 13.2852C48.9505 14.903 49.11 16.293 49.4062 17.4551C49.7025 18.5944 50.1012 19.5514 50.6025 20.3262C51.1266 21.1009 51.7305 21.6934 52.4141 22.1035C53.0977 22.4909 53.8154 22.7188 54.5674 22.7871V26.1709C53.1774 26.0798 51.8786 25.7493 50.6709 25.1797C49.4632 24.5872 48.415 23.7555 47.5264 22.6846C46.6605 21.5908 45.9769 20.2578 45.4756 18.6855C44.9971 17.1133 44.7578 15.3132 44.7578 13.2852ZM55.9346 0.433594C57.3245 0.501953 58.612 0.832357 59.7969 1.4248C61.0046 2.01725 62.0413 2.86035 62.9072 3.9541C63.7959 5.02507 64.4909 6.34668 64.9922 7.91895C65.4935 9.46842 65.7441 11.2572 65.7441 13.2852C65.7441 15.3132 65.4935 17.1133 64.9922 18.6855C64.4909 20.2578 63.7959 21.5908 62.9072 22.6846C62.0413 23.7555 61.016 24.5872 59.8311 25.1797C58.6462 25.7493 57.3473 26.0798 55.9346 26.1709V22.7871C56.7093 22.696 57.4385 22.4567 58.1221 22.0693C58.8057 21.6592 59.3981 21.0781 59.8994 20.3262C60.4007 19.5514 60.7995 18.5944 61.0957 17.4551C61.3919 16.293 61.5514 14.903 61.5742 13.2852C61.5514 11.6673 61.3919 10.2887 61.0957 9.14941C60.7995 7.9873 60.3893 7.03027 59.8652 6.27832C59.3639 5.50358 58.7715 4.92253 58.0879 4.53516C57.4043 4.125 56.6865 3.88574 55.9346 3.81738V0.433594ZM71.4863 0.80957H75.5879V26H71.4863V0.80957ZM78.7324 0.80957C79.8034 0.80957 80.863 0.980469 81.9111 1.32227C82.9593 1.66406 83.8936 2.17676 84.7139 2.86035C85.557 3.54395 86.2292 4.37565 86.7305 5.35547C87.2546 6.3125 87.5166 7.39486 87.5166 8.60254C87.5166 9.87858 87.3001 11.0407 86.8672 12.0889C86.4342 13.1143 85.8304 13.9801 85.0557 14.6865C84.2809 15.3929 83.3467 15.9398 82.2529 16.3271C81.1592 16.7145 79.9515 16.9082 78.6299 16.9082H76.9893V13.9004H79.3477C79.849 13.9004 80.3389 13.8206 80.8174 13.6611C81.3187 13.4788 81.7744 13.194 82.1846 12.8066C82.5947 12.4193 82.9251 11.8838 83.1758 11.2002C83.4264 10.4938 83.5518 9.62793 83.5518 8.60254C83.5518 8.19238 83.4948 7.72526 83.3809 7.20117C83.2669 6.6543 83.0277 6.1416 82.6631 5.66309C82.3213 5.16178 81.8314 4.75163 81.1934 4.43262C80.5553 4.09082 79.7122 3.91992 78.6641 3.91992H76.9893V0.80957H78.7324ZM129.968 0.80957V26H125.866V14.6523H116.364V11.8496H125.866V0.80957H129.968ZM110.793 0.80957H114.963V26H110.793V0.80957ZM135.812 13.2852C135.812 11.2572 136.052 9.46842 136.53 7.91895C137.032 6.34668 137.715 5.02507 138.581 3.9541C139.47 2.86035 140.507 2.02865 141.691 1.45898C142.899 0.866536 144.209 0.52474 145.622 0.433594V3.85156C144.847 3.94271 144.118 4.18197 143.435 4.56934C142.751 4.95671 142.159 5.52637 141.657 6.27832C141.156 7.03027 140.757 7.9873 140.461 9.14941C140.165 10.3115 140.005 11.6901 139.982 13.2852C140.005 14.903 140.165 16.293 140.461 17.4551C140.757 18.5944 141.156 19.5514 141.657 20.3262C142.181 21.1009 142.785 21.6934 143.469 22.1035C144.152 22.4909 144.87 22.7188 145.622 22.7871V26.1709C144.232 26.0798 142.933 25.7493 141.726 25.1797C140.518 24.5872 139.47 23.7555 138.581 22.6846C137.715 21.5908 137.032 20.2578 136.53 18.6855C136.052 17.1133 135.812 15.3132 135.812 13.2852ZM146.989 0.433594C148.379 0.501953 149.667 0.832357 150.852 1.4248C152.059 2.01725 153.096 2.86035 153.962 3.9541C154.851 5.02507 155.546 6.34668 156.047 7.91895C156.548 9.46842 156.799 11.2572 156.799 13.2852C156.799 15.3132 156.548 17.1133 156.047 18.6855C155.546 20.2578 154.851 21.5908 153.962 22.6846C153.096 23.7555 152.071 24.5872 150.886 25.1797C149.701 25.7493 148.402 26.0798 146.989 26.1709V22.7871C147.764 22.696 148.493 22.4567 149.177 22.0693C149.86 21.6592 150.453 21.0781 150.954 20.3262C151.455 19.5514 151.854 18.5944 152.15 17.4551C152.447 16.293 152.606 14.903 152.629 13.2852C152.606 11.6673 152.447 10.2887 152.15 9.14941C151.854 7.9873 151.444 7.03027 150.92 6.27832C150.419 5.50358 149.826 4.92253 149.143 4.53516C148.459 4.125 147.741 3.88574 146.989 3.81738V0.433594ZM162.541 0.80957H166.643V26H162.541V0.80957ZM169.787 0.80957C170.858 0.80957 171.918 0.980469 172.966 1.32227C174.014 1.66406 174.948 2.17676 175.769 2.86035C176.612 3.54395 177.284 4.37565 177.785 5.35547C178.309 6.3125 178.571 7.39486 178.571 8.60254C178.571 9.87858 178.355 11.0407 177.922 12.0889C177.489 13.1143 176.885 13.9801 176.11 14.6865C175.336 15.3929 174.401 15.9398 173.308 16.3271C172.214 16.7145 171.006 16.9082 169.685 16.9082H168.044V13.9004H170.402C170.904 13.9004 171.394 13.8206 171.872 13.6611C172.373 13.4788 172.829 13.194 173.239 12.8066C173.649 12.4193 173.98 11.8838 174.23 11.2002C174.481 10.4938 174.606 9.62793 174.606 8.60254C174.606 8.19238 174.549 7.72526 174.436 7.20117C174.322 6.6543 174.082 6.1416 173.718 5.66309C173.376 5.16178 172.886 4.75163 172.248 4.43262C171.61 4.09082 170.767 3.91992 169.719 3.91992H168.044V0.80957H169.787Z" fill="black"/>
</svg>
